<svg width="100" height="100" viewBox="0 0 100 100" fill="none" xmlns="http://www.w3.org/2000/svg">
<path fill-rule="evenodd" clip-rule="evenodd" d="M20 99.9999V91.9999V89.9999V71.9999C9.6293 71.9999 1.1022 79.8933 0.0987505 89.9999H0V91.9999V99.9999H20ZM100 79.9999C100 91.0456 91.0457 99.9999 80 99.9999V79.9999V70H100V79.9999ZM80 49.9999C91.0457 49.9999 100 58.9542 100 69.9999H80V49.9999ZM40 60C40 48.9543 48.9543 40 60 40C60 51.0457 51.0457 60 40 60ZM86 33.9999C93.732 33.9999 100 27.7319 100 20V19.9999V0H80V19.9999V20V33.9999H86ZM20 3.8147e-06C8.9543 3.8147e-06 0 8.9543 0 20V30H20V3.8147e-06ZM20 0V20H80V0H20ZM20 50C8.9543 50 0 41.0457 0 30H20V50ZM40 99.9999V79.9999H80V99.9999H40Z" fill="#F7F7F7"/>
</svg>
