<svg width="242" height="53" viewBox="0 0 242 53" fill="none" xmlns="http://www.w3.org/2000/svg">
<path d="M21.8144 22.55C21.8144 24.0433 21.4644 25.4083 20.7644 26.645C20.0877 27.8583 19.0494 28.8383 17.6494 29.585C16.2727 30.3083 14.581 30.67 12.5744 30.67H9.17938V39H2.31938V14.325H12.5744C14.5577 14.325 16.2377 14.675 17.6144 15.375C19.0144 16.075 20.0644 17.0433 20.7644 18.28C21.4644 19.5167 21.8144 20.94 21.8144 22.55ZM11.9094 25.21C13.846 25.21 14.8144 24.3233 14.8144 22.55C14.8144 20.7533 13.846 19.855 11.9094 19.855H9.17938V25.21H11.9094ZM43.6804 34.975H34.9304L33.6004 39H26.3904L35.3854 14.325H43.2954L52.2554 39H45.0104L43.6804 34.975ZM41.9654 29.725L39.3054 21.745L36.6804 29.725H41.9654ZM70.4863 39L65.5863 29.9H64.8513V39H57.9913V14.325H68.8063C70.7896 14.325 72.4696 14.675 73.8463 15.375C75.2229 16.0517 76.2613 16.9967 76.9613 18.21C77.6613 19.4 78.0113 20.7417 78.0113 22.235C78.0113 23.915 77.5446 25.3967 76.6112 26.68C75.7013 27.94 74.3596 28.8383 72.5863 29.375L78.1513 39H70.4863ZM64.8513 25.21H68.2463C69.1796 25.21 69.8796 24.9883 70.3463 24.545C70.8129 24.1017 71.0463 23.46 71.0463 22.62C71.0463 21.8267 70.8013 21.2083 70.3113 20.765C69.8446 20.2983 69.1563 20.065 68.2463 20.065H64.8513V25.21ZM99.2259 39L91.4909 28.185V39H84.6309V14.325H91.4909V24.965L99.1559 14.325H107.066L98.0009 26.295L107.521 39H99.2259ZM122.836 39.245C119.966 39.245 117.61 38.5683 115.766 37.215C113.923 35.8383 112.931 33.8783 112.791 31.335H120.106C120.176 32.1983 120.433 32.8283 120.876 33.225C121.32 33.6217 121.891 33.82 122.591 33.82C123.221 33.82 123.735 33.6683 124.131 33.365C124.551 33.0383 124.761 32.595 124.761 32.035C124.761 31.3117 124.423 30.7517 123.746 30.355C123.07 29.9583 121.973 29.515 120.456 29.025C118.846 28.4883 117.54 27.975 116.536 27.485C115.556 26.9717 114.693 26.2367 113.946 25.28C113.223 24.3 112.861 23.0283 112.861 21.465C112.861 19.8783 113.258 18.525 114.051 17.405C114.845 16.2617 115.941 15.3983 117.341 14.815C118.741 14.2317 120.328 13.94 122.101 13.94C124.971 13.94 127.258 14.6167 128.961 15.97C130.688 17.3 131.61 19.1783 131.726 21.605H124.271C124.248 20.8583 124.015 20.2983 123.571 19.925C123.151 19.5517 122.603 19.365 121.926 19.365C121.413 19.365 120.993 19.5167 120.666 19.82C120.34 20.1233 120.176 20.555 120.176 21.115C120.176 21.5817 120.351 21.99 120.701 22.34C121.075 22.6667 121.53 22.9583 122.066 23.215C122.603 23.4483 123.396 23.7517 124.446 24.125C126.01 24.6617 127.293 25.1983 128.296 25.735C129.323 26.2483 130.198 26.9833 130.921 27.94C131.668 28.8733 132.041 30.0633 132.041 31.51C132.041 32.98 131.668 34.2983 130.921 35.465C130.198 36.6317 129.136 37.5533 127.736 38.23C126.36 38.9067 124.726 39.245 122.836 39.245ZM158.226 22.55C158.226 24.0433 157.876 25.4083 157.176 26.645C156.499 27.8583 155.461 28.8383 154.061 29.585C152.684 30.3083 150.992 30.67 148.986 30.67H145.591V39H138.731V14.325H148.986C150.969 14.325 152.649 14.675 154.026 15.375C155.426 16.075 156.476 17.0433 157.176 18.28C157.876 19.5167 158.226 20.94 158.226 22.55ZM148.321 25.21C150.257 25.21 151.226 24.3233 151.226 22.55C151.226 20.7533 150.257 19.855 148.321 19.855H145.591V25.21H148.321ZM180.091 34.975H171.341L170.011 39H162.801L171.796 14.325H179.706L188.666 39H181.421L180.091 34.975ZM178.376 29.725L175.716 21.745L173.091 29.725H178.376ZM193.562 26.61C193.562 24.1833 194.064 22.025 195.067 20.135C196.094 18.2217 197.541 16.74 199.407 15.69C201.274 14.6167 203.421 14.08 205.847 14.08C208.927 14.08 211.517 14.9083 213.617 16.565C215.717 18.1983 217.071 20.4267 217.677 23.25H210.292C209.849 22.3167 209.231 21.605 208.437 21.115C207.667 20.625 206.769 20.38 205.742 20.38C204.156 20.38 202.884 20.9517 201.927 22.095C200.994 23.215 200.527 24.72 200.527 26.61C200.527 28.5233 200.994 30.0517 201.927 31.195C202.884 32.315 204.156 32.875 205.742 32.875C206.769 32.875 207.667 32.63 208.437 32.14C209.231 31.65 209.849 30.9383 210.292 30.005H217.677C217.071 32.8283 215.717 35.0683 213.617 36.725C211.517 38.3583 208.927 39.175 205.847 39.175C203.421 39.175 201.274 38.65 199.407 37.6C197.541 36.5267 196.094 35.045 195.067 33.155C194.064 31.2417 193.562 29.06 193.562 26.61ZM231.286 19.82V23.845H239.161V29.06H231.286V33.505H240.211V39H224.426V14.325H240.211V19.82H231.286Z" fill="black"/>
</svg>
